<svg width="69" height="86" viewBox="0 0 69 86" fill="none" xmlns="http://www.w3.org/2000/svg">
<path d="M44.0794 1.28978C43.3892 2.02052 41.7539 3.56798 40.4486 4.75723C36.0977 8.68319 35.2125 10.0874 35.0925 13.2969C35.0025 15.9047 35.6326 17.882 37.2679 20.1315C37.703 20.7333 38.0631 21.1918 38.0631 21.1345C38.0631 21.0915 37.793 20.5327 37.463 19.9023C36.2027 17.4951 35.8276 14.5721 36.5178 12.4945C37.1629 10.5459 38.1081 9.37096 41.3038 6.54827C41.9789 5.96081 42.8041 5.1441 43.1492 4.75723L43.7943 4.04081L43.7043 7.04976C43.6593 9.0414 43.5542 10.4169 43.3892 11.1333C42.8341 13.5548 41.7539 15.4748 39.7885 17.5811C38.3632 19.1142 37.9581 19.9882 38.3482 20.7047C38.4082 20.8336 38.5132 21.3781 38.5732 21.8939L38.6632 22.8396L37.808 23.3841C34.9124 25.2181 32.872 27.8688 32.0468 30.8778C31.8218 31.6802 31.7318 32.4539 31.7318 33.7005C31.7168 36.3512 32.2269 38.5578 33.5171 41.3375L34.1923 42.799L33.9522 43.9452C33.7122 45.1058 33.6372 48.5589 33.8472 49.4616C33.9222 49.8198 34.0122 49.8915 34.3873 49.8915H34.8374L34.9424 48.0431C35.3325 41.4521 37.613 37.6264 42.9691 34.5745C47.095 32.2246 48.3102 30.9064 51.0558 25.8056C53.2163 21.7506 53.9064 20.676 55.5718 18.6271L56.517 17.4665L55.1817 18.0109C53.0212 18.8993 49.9156 19.7877 46.1648 20.59C42.564 21.3494 40.9287 21.7936 39.6834 22.3954C39.2934 22.5817 38.9333 22.7393 38.8883 22.7393C38.8433 22.7393 38.8283 22.1662 38.8733 21.4497C38.9483 19.9166 38.9633 19.8879 41.2888 17.5668C42.549 16.3202 43.0741 15.6611 43.5092 14.8444C44.4694 13.0247 44.5445 12.4945 44.4394 8.98409C44.3344 5.68857 44.5145 3.53933 45.1146 1.14649C45.2646 0.530375 45.3846 0.0145529 45.3696 0.000224536C45.3546 -0.0141038 44.7695 0.573359 44.0794 1.28978ZM50.9958 23.7566C47.9802 29.0581 45.8797 31.3076 41.0637 34.4169C40.1185 35.033 39.0083 35.8067 38.6032 36.122C37.1179 37.2969 35.4225 39.6181 34.7774 41.3518C34.6274 41.7673 34.4623 42.0539 34.4173 41.9822C34.1773 41.624 33.5321 38.7011 33.3821 37.3399C32.887 32.8264 34.6424 28.8718 38.3332 26.2211C40.4486 24.6879 42.369 23.9859 46.2398 23.3124C47.8902 23.0259 50.5157 22.2951 51.6409 21.8223C51.896 21.722 52.106 21.6503 52.1361 21.6647C52.1511 21.679 51.6409 22.6247 50.9958 23.7566Z" fill="#151618"/>
<path d="M17.6811 4.86836C18.5759 8.09669 18.8443 12.3294 18.4119 16.2895C17.875 21.2252 18.3224 22.7175 21.5137 26.778C22.3787 27.8684 23.348 29.2889 23.691 29.9202C24.6603 31.7998 25.1823 34.4686 25.1972 37.6826V39.0169L24.8393 38.8735C24.0042 38.5721 22.498 38.443 18.7101 38.3713C16.503 38.3282 14.2213 38.2278 13.6397 38.1704C13.0731 38.0987 12.5809 38.07 12.566 38.0843C12.5362 38.0987 12.8345 38.3282 13.2371 38.6008C14.9223 39.763 16.6223 41.2696 18.5908 43.3501C19.754 44.5697 21.1409 45.9184 21.6927 46.3345C24.0489 48.128 26.7481 49.1754 30.0141 49.5485C31.3562 49.7063 30.8194 49.2185 28.5526 48.2715C24.9437 46.7506 23.1392 45.5166 20.3654 42.6901C19.3215 41.6283 18.054 40.4948 17.5618 40.1648L16.6671 39.5909H18.4268C23.0498 39.5909 25.6595 40.4518 27.8815 42.7044C28.9851 43.8092 29.7755 45.1866 30.1781 46.6645C30.2974 47.138 30.4316 47.5541 30.4764 47.5971C30.6255 47.7263 30.5807 45.904 30.4167 44.8997C30.0737 42.8192 28.3438 40.5235 26.3604 39.5191L25.4955 39.0887V36.7212C25.4955 32.015 25.063 30.3937 22.7962 26.7206C19.7988 21.8422 19.3066 19.9196 19.3961 13.1616C19.4259 11.0668 19.4707 9.34498 19.4856 9.35933C19.4856 9.37368 19.7988 9.77543 20.1567 10.2489C20.5295 10.7224 21.8567 12.1429 23.1243 13.4055C26.1964 16.4617 27.3745 18.2265 28.1052 20.8809C28.9254 23.7936 28.2543 27.8684 26.3157 31.7998C25.9578 32.5316 25.6893 33.1342 25.7042 33.1342C25.7341 33.1342 25.9876 32.7898 26.2858 32.3594C28.6272 28.9732 29.8053 25.1566 29.6263 21.5839C29.5219 19.6326 29.1193 18.1117 28.2693 16.4186C27.4043 14.6681 26.4052 13.4342 23.5121 10.5502C21.2602 8.29757 19.7093 6.63318 18.0838 4.79662L17.4574 4.07922L17.6811 4.86836Z" fill="#151618"/>
<path d="M44.5727 40.0357C41.1472 40.7346 38.8185 43.6443 38.8034 47.2101C38.8034 47.9233 38.7734 47.9803 38.3377 48.123C37.5565 48.3797 38.1274 48.5081 40.5462 48.6079C44.0017 48.7505 46.1201 48.3654 47.923 47.2529C48.4188 46.9534 49.6658 45.9977 50.7024 45.1277C52.8058 43.3875 53.8875 42.6459 55.6604 41.7473L56.8473 41.1482L55.4049 41.0484C54.6237 41.0056 53.2265 40.8201 52.295 40.6633C51.3635 40.5064 49.8911 40.2496 49.0198 40.107C47.1868 39.7932 45.8647 39.7647 44.5727 40.0357ZM49.5306 41.8186C50.2667 41.9897 51.4086 42.1752 52.0396 42.218L53.2114 42.3178L51.5738 43.573C49.0799 45.4843 47.4272 46.3543 45.3088 46.8678C44.2271 47.1388 39.3894 47.8377 39.2842 47.7379C39.149 47.6095 39.5847 46.283 40.1105 45.2418C41.027 43.4303 42.7548 42.1324 44.9332 41.6046C46.045 41.3336 47.7878 41.4192 49.5306 41.8186Z" fill="#151618"/>
<path d="M11.0566 55.6405C10.8761 63.3894 11.2972 66.0108 13.3277 69.9141C14.3956 71.9593 16.1252 74.3502 17.3586 75.4737C17.6594 75.7473 17.9 76.0066 17.9 76.0498C17.9 76.1074 14.1549 76.1218 9.59766 76.093C5.02534 76.0642 1.12985 76.093 0.934322 76.1362C0.753836 76.1794 0.513187 76.3811 0.422944 76.5683C0.28758 76.8708 0.30262 76.9716 0.528228 77.2165C0.798957 77.5045 0.964405 77.5045 34.4747 77.5045C57.4114 77.5045 68.2406 77.4613 68.4512 77.3605C68.8422 77.1588 68.8422 76.4099 68.4512 76.2082C68.2557 76.1218 65.1573 76.0642 59.4118 76.0642H50.6733L51.5908 75.0128C54.2078 72.0601 55.9074 68.8194 57.0204 64.6857C57.3362 63.5479 57.3663 63.0582 57.4114 57.2969L57.4866 51.1467H34.3243H11.1619L11.0566 55.6405Z" fill="#151618"/>
<path d="M4.81415 79.4547C9.89634 81.7458 17.7301 83.6127 25.0377 84.2774C26.3308 84.4047 26.9172 84.5037 26.6916 84.5603C26.3759 84.6451 26.3608 84.6593 26.6164 84.6734C26.7818 84.6876 27.8043 84.7583 28.8719 84.8431C34.375 85.225 46.1633 84.9987 45.8325 84.5037C45.7874 84.433 45.8025 84.4047 45.8927 84.4471C45.9679 84.4896 46.2385 84.4754 46.4791 84.4047C46.9001 84.2916 46.9001 84.2916 46.3137 84.2633C45.9528 84.2491 46.7197 84.0794 48.1932 83.839C52.7792 83.1036 56.5532 82.2125 59.6507 81.1377C61.4249 80.5154 64.8682 79.1011 65.1088 78.8748C65.1839 78.8041 53.4408 78.7475 34.2848 78.7617L3.31055 78.7758L4.81415 79.4547Z" fill="#151618"/>
</svg>
